PathFileType	4	(X/Y/Z)	anato.trc
DataRate	CameraRate	NumFrames	NumMarkers	Units	OrigDataRate	OrigDataStartFrame	OrigNumFrames
100.0	100.0	7	17	mm	100.0	232	618
Frame#	Time	STER			XIPH			T10			T1			CLAV_SC			CLAV_AC			SCAP_AA			SCAP_CP			SCAP_TS			SCAP_IA			DELT			ARMl			EPICm			EPICl			LARM_elb			STYLr			STYLu		
		X1	Y1	Z1	X2	Y2	Z2	X3	Y3	Z3	X4	Y4	Z4	X5	Y5	Z5	X6	Y6	Z6	X7	Y7	Z7	X8	Y8	Z8	X9	Y9	Z9	X10	Y10	Z10	X11	Y11	Z11	X12	Y12	Z12	X13	Y13	Z13	X14	Y14	Z14	X15	Y15	Z15	X16	Y16	Z16	X17	Y17	Z17

232	2.31	379.56927490234375	37.38944625854492	1433.94873046875	387.5359802246094	85.71392059326172	1275.5076904296875	373.015380859375	-146.8441162109375	1236.615234375	373.9507141113281	-123.97927856445312	1478.09228515625	414.7154541015625	27.291418075561523	1442.6065673828125	568.9803466796875	-47.73179244995117	1464.67724609375	574.7944946289062	-93.92387390136719	1450.6781005859375	518.2435913085938	-99.37582397460938	1480.004638671875	504.9919128417969	-157.07827758789062	1426.6751708984375	485.48388671875	-168.72247314453125	1283.4825439453125	651.6660766601562	-76.081787109375	1321.792236328125	670.5262451171875	-88.23765563964844	1276.033447265625	674.0238037109375	-30.553014755249023	1117.1595458984375	737.0787963867188	-94.53155517578125	1173.326904296875	689.6895751953125	-75.44541931152344	1109.622314453125	937.5535278320312	10.387752532958984	1007.9931640625	869.3380737304688	15.172102928161621	958.8978881835938
233	2.32	379.6867370605469	37.42131042480469	1433.9383544921875	387.56524658203125	85.69747924804688	1275.4775390625	373.0121154785156	-146.84393310546875	1236.6220703125	373.953125	-123.93411254882812	1478.1318359375	414.7467346191406	27.300273895263672	1442.58056640625	568.98046875	-47.71038818359375	1464.644775390625	574.8442993164062	-93.92574310302734	1450.713134765625	518.2830810546875	-99.37676239013672	1479.994384765625	505.0208435058594	-157.06338500976562	1426.6610107421875	485.5473327636719	-168.7342071533203	1283.487060546875	651.5137939453125	-76.09982299804688	1321.8450927734375	670.548583984375	-88.26129150390625	1276.01416015625	673.969482421875	-30.648880004882812	1117.1005859375	737.0484008789062	-94.57875061035156	1173.24462890625	689.6817626953125	-75.49308776855469	1109.588623046875	937.1798706054688	10.296238899230957	1007.7825317382812	869.3436279296875	15.06908130645752	958.8526611328125
234	2.33	379.66314697265625	37.41191482543945	1433.938720703125	387.5825500488281	85.68877410888672	1275.46923828125	373.04351806640625	-146.86216735839844	1236.6885986328125	374.0071716308594	-123.92960357666016	1478.1458740234375	414.70343017578125	27.29361343383789	1442.7886962890625	569.0010986328125	-47.703834533691406	1464.6400146484375	574.8634033203125	-93.91502380371094	1450.6976318359375	518.3019409179688	-99.34882354736328	1479.994140625	505.0012512207031	-157.03778076171875	1426.691650390625	485.5662841796875	-168.7357177734375	1283.4677734375	651.63330078125	-76.10640716552734	1321.7608642578125	670.5765991210938	-88.27291107177734	1275.996826171875	673.9852294921875	-30.679447174072266	1117.08544921875	737.070556640625	-94.6213607788086	1173.2322998046875	689.653076171875	-75.55644226074219	1109.58349609375	937.5308837890625	10.164562225341797	1007.8656005859375	869.2867431640625	14.996237754821777	958.7398071289062
235	2.34	379.6545104980469	37.372310638427734	1434.0867919921875	387.6060791015625	85.68059539794922	1275.4410400390625	373.0399475097656	-146.86215209960938	1236.69287109375	374.03485107421875	-123.88484954833984	1478.1865234375	414.7358703613281	27.288862228393555	1442.7801513671875	569.0513916015625	-47.70255661010742	1464.623046875	574.8911743164062	-93.91881561279297	1450.6915283203125	518.3504028320312	-99.33635711669922	1479.9940185546875	504.9725646972656	-157.0388641357422	1426.736083984375	485.4892272949219	-168.73760986328125	1283.5250244140625	651.408447265625	-76.15861511230469	1321.798583984375	670.5967407226562	-88.30039978027344	1275.9864501953125	674.0619506835938	-30.67477798461914	1117.072021484375	737.0281372070312	-94.70140838623047	1173.20751953125	689.6571044921875	-75.59326171875	1109.5335693359375	937.4927368164062	10.015901565551758	1007.7938842773438	869.31494140625	14.931709289550781	958.7281494140625
236	2.35	379.6575622558594	37.36105728149414	1434.0828857421875	387.6177673339844	85.67130279541016	1275.421875	373.0595703125	-146.84991455078125	1236.7239990234375	374.0760192871094	-123.85879516601562	1478.205078125	414.78009033203125	27.29214096069336	1442.77099609375	569.0477905273438	-47.691619873046875	1464.5904541015625	574.9390258789062	-93.90604400634766	1450.677734375	518.3796997070312	-99.3211898803711	1479.983642578125	505.0941467285156	-157.01646423339844	1426.66650390625	485.4782409667969	-168.75526428222656	1283.554443359375	651.4075927734375	-76.19717407226562	1321.798095703125	670.5858154296875	-88.3425521850586	1275.953857421875	674.0531005859375	-30.724102020263672	1117.038330078125	737.0880126953125	-94.76000213623047	1173.1640625	689.6324462890625	-75.65719604492188	1109.5341796875	937.0773315429688	9.940043449401855	1007.5934448242188	869.2984619140625	14.822081565856934	958.6632080078125
237	2.36	379.7450256347656	37.35765075683594	1434.0380859375	387.6455078125	85.66519165039062	1275.405517578125	373.0579528808594	-146.851318359375	1236.757080078125	374.0727844238281	-123.83390045166016	1478.2091064453125	414.8130798339844	27.3076229095459	1442.765869140625	569.1156005859375	-47.6878776550293	1464.5810546875	574.9466552734375	-93.89439392089844	1450.6727294921875	518.3846435546875	-99.31670379638672	1479.9764404296875	505.0450439453125	-157.02059936523438	1426.6978759765625	485.5805358886719	-168.74143981933594	1283.45068359375	651.7587890625	-76.17474365234375	1321.69384765625	670.5809936523438	-88.37934875488281	1275.93798828125	673.976318359375	-30.811046600341797	1116.988525390625	737.0187377929688	-94.81206512451172	1173.1468505859375	689.603271484375	-75.6766128540039	1109.492919921875	937.4566040039062	9.84518051147461	1007.6942749023438	869.3137817382812	14.7675142288208	958.59912109375
238	2.37	379.787109375	37.379783630371094	1434.05419921875	387.6497802734375	85.61237335205078	1275.35498046875	373.06280517578125	-146.84963989257812	1236.7642822265625	374.1119689941406	-123.81420135498047	1478.233154296875	414.85430908203125	27.306123733520508	1442.7603759765625	569.1162109375	-47.693939208984375	1464.5816650390625	574.95458984375	-93.90174865722656	1450.63232421875	518.4044799804688	-99.31768798828125	1479.967529296875	505.0918273925781	-157.01499938964844	1426.69384765625	485.4516906738281	-168.76864624023438	1283.5340576171875	651.6223754882812	-76.20297241210938	1321.6912841796875	670.580810546875	-88.40435791015625	1275.9129638671875	674.0195922851562	-30.80146026611328	1117.0537109375	737.0186157226562	-94.8700942993164	1173.10205078125	689.5953369140625	-75.7261734008789	1109.457763671875	937.4249267578125	9.763189315795898	1007.6341552734375	869.2576904296875	14.668814659118652	958.5713500976562
